<svg xmlns="http://www.w3.org/2000/svg" xmlns:xlink="http://www.w3.org/1999/xlink">
  <defs>
    <symbol viewBox="0 0 48 48" id="skip_previous">
      <path fill="currentColor" d="M11 36V12h3v24Zm26 0L19.7 24 37 12Zm-3-12Zm0 6.25v-12.5L24.95 24Z"/>
    </symbol>
    <symbol viewBox="0 0 48 48" id="pause">
      <path fill="currentColor" d="M28.25 38V10H36v28ZM12 38V10h7.75v28Z"/>
    </symbol>
    <symbol viewBox="0 0 48 48" id="play_arrow">
      <path fill="currentColor" d="M16 37.85v-28l22 14Zm3-14Zm0 8.55 13.45-8.55L19 15.3Z"/>
    </symbol>
    <symbol viewBox="0 0 48 48" id="skip_next">
      <path fill="currentColor" d="M34 36V12h3v24Zm-23 0V12l17.3 12Zm3-12Zm0 6.25L23.05 24 14 17.75Z"/>
    </symbol>
    <symbol viewBox="0 0 48 48" id="volume_off">
      <path fill="currentColor" d="m40.65 45.2-6.6-6.6q-1.4 1-3.025 1.725-1.625.725-3.375 1.125v-3.1q1.15-.35 2.225-.775 1.075-.425 2.025-1.125l-8.25-8.3V40l-10-10h-8V18h7.8l-11-11L4.6 4.85 42.8 43Zm-1.8-11.6-2.15-2.15q1-1.7 1.475-3.6.475-1.9.475-3.9 0-5.15-3-9.225-3-4.075-8-5.175v-3.1q6.2 1.4 10.1 6.275 3.9 4.875 3.9 11.225 0 2.55-.7 5t-2.1 4.65Zm-6.7-6.7-4.5-4.5v-6.5Q30 17 31.325 19.2q1.325 2.2 1.325 4.8 0 .75-.125 1.475-.125.725-.375 1.425Zm-8.5-8.5-5.2-5.2 5.2-5.2Zm-3 14.3v-7.5l-4.2-4.2h-7.8v6h6.3Zm-2.1-9.6Z"/>
    </symbol>
    <symbol viewBox="0 0 48 48" id="volume_up">
      <path fill="currentColor" d="M28 41.45v-3.1q4.85-1.4 7.925-5.375T39 23.95q0-5.05-3.05-9.05-3.05-4-7.95-5.35v-3.1q6.2 1.4 10.1 6.275Q42 17.6 42 23.95t-3.9 11.225Q34.2 40.05 28 41.45ZM6 30V18h8L24 8v32L14 30Zm21 2.4V15.55q2.75.85 4.375 3.2T33 24q0 2.85-1.65 5.2T27 32.4Zm-6-16.8L15.35 21H9v6h6.35L21 32.45ZM16.3 24Z"/>
    </symbol>
  </defs>
</svg>